<?xml version="1.0" encoding="UTF-8" standalone="no" ?>
<!DOCTYPE svg PUBLIC "-//W3C//DTD SVG 1.1//EN" "http://www.w3.org/Graphics/SVG/1.1/DTD/svg11.dtd">
<svg xmlns="http://www.w3.org/2000/svg" xmlns:xlink="http://www.w3.org/1999/xlink" version="1.1" width="445" height="445" viewBox="0 0 445 445" xml:space="preserve">
<desc>Created with Fabric.js 1.7.22</desc>
<defs>
</defs>
<g id="icon" style="stroke: none; stroke-width: 1; stroke-dasharray: none; stroke-linecap: butt; stroke-linejoin: miter; stroke-miterlimit: 10; fill: none; fill-rule: nonzero; opacity: 1;" transform="translate(-2.4722222222222285 -2.4722222222222285) scale(4.94 4.94)" >
	<circle cx="45.067" cy="39.507000000000005" r="22.907" style="stroke: none; stroke-width: 1; stroke-dasharray: none; stroke-linecap: butt; stroke-linejoin: miter; stroke-miterlimit: 10; fill: rgb(255,51,51); fill-rule: nonzero; opacity: 1;" transform="  matrix(1 0 0 1 0 0) "/>
	<circle cx="35.172" cy="4.731999999999999" r="3.582" style="stroke: none; stroke-width: 1; stroke-dasharray: none; stroke-linecap: butt; stroke-linejoin: miter; stroke-miterlimit: 10; fill: rgb(255,51,51); fill-rule: nonzero; opacity: 1;" transform="  matrix(1 0 0 1 0 0) "/>
	<circle cx="72.442" cy="15.072" r="3.582" style="stroke: none; stroke-width: 1; stroke-dasharray: none; stroke-linecap: butt; stroke-linejoin: miter; stroke-miterlimit: 10; fill: rgb(255,51,51); fill-rule: nonzero; opacity: 1;" transform="  matrix(1 0 0 1 0 0) "/>
	<circle cx="10.882" cy="52.312" r="3.582" style="stroke: none; stroke-width: 1; stroke-dasharray: none; stroke-linecap: butt; stroke-linejoin: miter; stroke-miterlimit: 10; fill: rgb(255,51,51); fill-rule: nonzero; opacity: 1;" transform="  matrix(1 0 0 1 0 0) "/>
	<circle cx="63.992" cy="67.612" r="3.582" style="stroke: none; stroke-width: 1; stroke-dasharray: none; stroke-linecap: butt; stroke-linejoin: miter; stroke-miterlimit: 10; fill: rgb(255,51,51); fill-rule: nonzero; opacity: 1;" transform="  matrix(1 0 0 1 0 0) "/>
	<circle cx="32.056" cy="71.956" r="3.566" style="stroke: none; stroke-width: 1; stroke-dasharray: none; stroke-linecap: butt; stroke-linejoin: miter; stroke-miterlimit: 10; fill: rgb(255,51,51); fill-rule: nonzero; opacity: 1;" transform="  matrix(1 0 0 1 0 0) "/>
	<circle cx="13.995999999999999" cy="27.855999999999998" r="3.566" style="stroke: none; stroke-width: 1; stroke-dasharray: none; stroke-linecap: butt; stroke-linejoin: miter; stroke-miterlimit: 10; fill: rgb(255,51,51); fill-rule: nonzero; opacity: 1;" transform="  matrix(1 0 0 1 0 0) "/>
	<circle cx="79.536" cy="39.516000000000005" r="3.566" style="stroke: none; stroke-width: 1; stroke-dasharray: none; stroke-linecap: butt; stroke-linejoin: miter; stroke-miterlimit: 10; fill: rgb(255,51,51); fill-rule: nonzero; opacity: 1;" transform="  matrix(1 0 0 1 0 0) "/>
	<circle cx="38.525999999999996" cy="42.096" r="6.226" style="stroke: none; stroke-width: 1; stroke-dasharray: none; stroke-linecap: butt; stroke-linejoin: miter; stroke-miterlimit: 10; fill: rgb(255,131,131); fill-rule: nonzero; opacity: 1;" transform="  matrix(1 0 0 1 0 0) "/>
	<circle cx="42.898" cy="26.878" r="2.508" style="stroke: none; stroke-width: 1; stroke-dasharray: none; stroke-linecap: butt; stroke-linejoin: miter; stroke-miterlimit: 10; fill: rgb(255,131,131); fill-rule: nonzero; opacity: 1;" transform="  matrix(1 0 0 1 0 0) "/>
	<circle cx="55.818000000000005" cy="44.968" r="2.508" style="stroke: none; stroke-width: 1; stroke-dasharray: none; stroke-linecap: butt; stroke-linejoin: miter; stroke-miterlimit: 10; fill: rgb(255,131,131); fill-rule: nonzero; opacity: 1;" transform="  matrix(1 0 0 1 0 0) "/>
	<path d="M 72.442 38.761 h -3.751 c -0.168 -5.3 -2.099 -10.363 -5.501 -14.423 l 6.28 -5.607 c 0.815 0.664 1.841 1.079 2.972 1.079 c 2.611 0 4.735 -2.125 4.735 -4.736 c 0 -2.611 -2.124 -4.736 -4.735 -4.736 s -4.736 2.125 -4.736 4.736 c 0 0.939 0.283 1.811 0.756 2.548 l -6.805 6.075 l 0 0 l 0 0 l -6.178 5.515 c -0.31 0.276 -0.336 0.75 -0.061 1.059 c 0.148 0.166 0.354 0.25 0.56 0.25 c 0.178 0 0.356 -0.063 0.499 -0.19 l 5.594 -4.994 c 3.317 3.976 5.154 8.972 5.154 14.174 c 0 4.842 -1.533 9.441 -4.435 13.301 c -0.249 0.331 -0.183 0.801 0.149 1.05 c 0.135 0.102 0.293 0.15 0.449 0.15 c 0.229 0 0.453 -0.104 0.601 -0.3 c 2.947 -3.92 4.554 -8.559 4.706 -13.452 h 3.747 c 0.414 0 0.75 -0.336 0.75 -0.75 S 72.856 38.761 72.442 38.761 z M 72.442 11.838 c 1.784 0 3.235 1.452 3.235 3.236 c 0 1.785 -1.451 3.236 -3.235 3.236 s -3.236 -1.452 -3.236 -3.236 C 69.206 13.29 70.658 11.838 72.442 11.838 z" style="stroke: none; stroke-width: 1; stroke-dasharray: none; stroke-linecap: butt; stroke-linejoin: miter; stroke-miterlimit: 10; fill: rgb(0,0,0); fill-rule: nonzero; opacity: 1;" transform=" matrix(1 0 0 1 0 0) " stroke-linecap="round" />
	<path d="M 20.089 30.945 l 3.259 1.222 c 0.001 0 0.001 0.001 0.001 0.001 c 0.001 0 0.001 0 0.002 0 l 3.972 1.489 c 0.086 0.033 0.176 0.048 0.263 0.048 c 0.304 0 0.589 -0.186 0.702 -0.487 c 0.146 -0.388 -0.051 -0.82 -0.439 -0.965 l -3.243 -1.216 c 3.407 -8.21 11.526 -13.684 20.461 -13.684 c 3.686 0 7.335 0.923 10.554 2.67 c 0.365 0.198 0.82 0.061 1.017 -0.301 c 0.197 -0.364 0.063 -0.819 -0.302 -1.017 c -3.437 -1.866 -7.334 -2.852 -11.269 -2.852 c -1.982 0 -3.923 0.263 -5.794 0.741 l -2.151 -7.498 c 1.697 -0.721 2.891 -2.404 2.891 -4.362 C 40.014 2.125 37.89 0 35.278 0 c -2.611 0 -4.736 2.125 -4.736 4.736 c 0 2.612 2.125 4.736 4.736 4.736 c 0.131 0 0.254 -0.028 0.382 -0.039 l 2.172 7.571 c -6.517 2.113 -11.95 7.011 -14.629 13.506 l -2.587 -0.97 c -0.388 -0.147 -0.82 0.05 -0.965 0.439 C 19.505 30.368 19.701 30.8 20.089 30.945 z M 32.042 4.736 c 0 -1.784 1.452 -3.236 3.236 -3.236 c 1.785 0 3.236 1.452 3.236 3.236 c 0 1.785 -1.452 3.236 -3.236 3.236 C 33.494 7.972 32.042 6.521 32.042 4.736 z" style="stroke: none; stroke-width: 1; stroke-dasharray: none; stroke-linecap: butt; stroke-linejoin: miter; stroke-miterlimit: 10; fill: rgb(0,0,0); fill-rule: nonzero; opacity: 1;" transform=" matrix(1 0 0 1 0 0) " stroke-linecap="round" />
	<path d="M 63.989 62.88 c -0.735 0 -1.423 0.183 -2.045 0.483 l -6.076 -9.073 c -0.23 -0.346 -0.696 -0.438 -1.04 -0.206 c -0.345 0.23 -0.437 0.696 -0.206 1.04 l 2.139 3.194 c -3.507 2.186 -7.529 3.351 -11.693 3.351 c -12.218 0 -22.157 -9.939 -22.157 -22.158 c 0 -0.319 0.007 -0.637 0.021 -0.953 c 0.017 -0.414 -0.304 -0.763 -0.718 -0.781 c -0.402 -0.008 -0.763 0.304 -0.781 0.718 c -0.014 0.336 -0.021 0.675 -0.021 1.015 c 0 2.655 0.446 5.206 1.256 7.59 l -7.687 2.88 c -0.817 -1.427 -2.337 -2.402 -4.096 -2.402 c -2.611 0 -4.736 2.125 -4.736 4.736 s 2.125 4.736 4.736 4.736 c 2.612 0 4.736 -2.125 4.736 -4.736 c 0 -0.321 -0.034 -0.634 -0.095 -0.937 l 7.666 -2.872 c 2.334 5.657 6.8 10.214 12.392 12.672 l -1.598 3.99 c -0.154 0.385 0.033 0.821 0.417 0.976 c 0.091 0.036 0.186 0.054 0.279 0.054 c 0.297 0 0.579 -0.178 0.696 -0.471 l 1.596 -3.985 c 2.526 0.923 5.252 1.427 8.094 1.427 c 4.463 0 8.773 -1.253 12.528 -3.604 l 3.113 4.648 c -0.894 0.862 -1.455 2.065 -1.455 3.402 c 0 2.611 2.124 4.736 4.735 4.736 s 4.736 -2.125 4.736 -4.736 S 66.601 62.88 63.989 62.88 z M 10.885 55.552 c -1.784 0 -3.236 -1.452 -3.236 -3.236 s 1.452 -3.236 3.236 -3.236 c 1.322 0 2.457 0.799 2.959 1.937 c 0.007 0.06 0.007 0.121 0.029 0.18 c 0.02 0.054 0.052 0.099 0.082 0.145 c 0.099 0.309 0.166 0.632 0.166 0.974 C 14.121 54.1 12.669 55.552 10.885 55.552 z M 63.989 70.852 c -1.784 0 -3.235 -1.452 -3.235 -3.236 s 1.451 -3.235 3.235 -3.235 s 3.236 1.451 3.236 3.235 S 65.773 70.852 63.989 70.852 z" style="stroke: none; stroke-width: 1; stroke-dasharray: none; stroke-linecap: butt; stroke-linejoin: miter; stroke-miterlimit: 10; fill: rgb(0,0,0); fill-rule: nonzero; opacity: 1;" transform=" matrix(1 0 0 1 0 0) " stroke-linecap="round" />
	<path d="M 13.992 31.716 c 2.127 0 3.858 -1.73 3.858 -3.857 s -1.73 -3.857 -3.858 -3.857 c -2.127 0 -3.857 1.73 -3.857 3.857 S 11.865 31.716 13.992 31.716 z M 13.992 25.501 c 1.3 0 2.358 1.058 2.358 2.357 s -1.058 2.357 -2.358 2.357 c -1.3 0 -2.357 -1.058 -2.357 -2.357 S 12.692 25.501 13.992 25.501 z" style="stroke: none; stroke-width: 1; stroke-dasharray: none; stroke-linecap: butt; stroke-linejoin: miter; stroke-miterlimit: 10; fill: rgb(0,0,0); fill-rule: nonzero; opacity: 1;" transform=" matrix(1 0 0 1 0 0) " stroke-linecap="round" />
	<path d="M 79.535 35.654 c -2.127 0 -3.857 1.73 -3.857 3.857 c 0 2.127 1.73 3.858 3.857 3.858 c 2.128 0 3.858 -1.73 3.858 -3.858 C 83.394 37.384 81.663 35.654 79.535 35.654 z M 79.535 41.869 c -1.3 0 -2.357 -1.058 -2.357 -2.358 c 0 -1.3 1.058 -2.357 2.357 -2.357 c 1.301 0 2.358 1.058 2.358 2.357 C 81.894 40.812 80.836 41.869 79.535 41.869 z" style="stroke: none; stroke-width: 1; stroke-dasharray: none; stroke-linecap: butt; stroke-linejoin: miter; stroke-miterlimit: 10; fill: rgb(0,0,0); fill-rule: nonzero; opacity: 1;" transform=" matrix(1 0 0 1 0 0) " stroke-linecap="round" />
	<path d="M 32.068 68.117 c -2.127 0 -3.858 1.73 -3.858 3.858 c 0 2.127 1.73 3.857 3.858 3.857 c 2.127 0 3.857 -1.73 3.857 -3.857 C 35.926 69.848 34.195 68.117 32.068 68.117 z M 32.068 74.333 c -1.3 0 -2.358 -1.058 -2.358 -2.357 c 0 -1.301 1.058 -2.358 2.358 -2.358 c 1.3 0 2.357 1.058 2.357 2.358 C 34.426 73.275 33.368 74.333 32.068 74.333 z" style="stroke: none; stroke-width: 1; stroke-dasharray: none; stroke-linecap: butt; stroke-linejoin: miter; stroke-miterlimit: 10; fill: rgb(0,0,0); fill-rule: nonzero; opacity: 1;" transform=" matrix(1 0 0 1 0 0) " stroke-linecap="round" />
	<path d="M 38.521 35.316 c -3.855 0 -6.991 3.136 -6.991 6.992 c 0 3.855 3.136 6.992 6.991 6.992 c 3.855 0 6.992 -3.137 6.992 -6.992 C 45.513 38.453 42.376 35.316 38.521 35.316 z M 38.521 47.8 c -3.028 0 -5.491 -2.463 -5.491 -5.492 s 2.463 -5.492 5.491 -5.492 c 3.028 0 5.492 2.463 5.492 5.492 S 41.549 47.8 38.521 47.8 z" style="stroke: none; stroke-width: 1; stroke-dasharray: none; stroke-linecap: butt; stroke-linejoin: miter; stroke-miterlimit: 10; fill: rgb(0,0,0); fill-rule: nonzero; opacity: 1;" transform=" matrix(1 0 0 1 0 0) " stroke-linecap="round" />
	<path d="M 55.821 48.585 c 1.996 0 3.62 -1.624 3.62 -3.62 c 0 -1.996 -1.624 -3.62 -3.62 -3.62 c -1.995 0 -3.619 1.624 -3.619 3.62 C 52.202 46.961 53.826 48.585 55.821 48.585 z M 55.821 42.846 c 1.169 0 2.12 0.951 2.12 2.12 c 0 1.168 -0.951 2.12 -2.12 2.12 s -2.119 -0.951 -2.119 -2.12 C 53.702 43.796 54.652 42.846 55.821 42.846 z" style="stroke: none; stroke-width: 1; stroke-dasharray: none; stroke-linecap: butt; stroke-linejoin: miter; stroke-miterlimit: 10; fill: rgb(0,0,0); fill-rule: nonzero; opacity: 1;" transform=" matrix(1 0 0 1 0 0) " stroke-linecap="round" />
	<path d="M 42.901 23.258 c -1.996 0 -3.62 1.624 -3.62 3.62 s 1.624 3.62 3.62 3.62 s 3.62 -1.624 3.62 -3.62 S 44.897 23.258 42.901 23.258 z M 42.901 28.997 c -1.169 0 -2.12 -0.951 -2.12 -2.12 s 0.951 -2.12 2.12 -2.12 s 2.12 0.951 2.12 2.12 S 44.07 28.997 42.901 28.997 z" style="stroke: none; stroke-width: 1; stroke-dasharray: none; stroke-linecap: butt; stroke-linejoin: miter; stroke-miterlimit: 10; fill: rgb(0,0,0); fill-rule: nonzero; opacity: 1;" transform=" matrix(1 0 0 1 0 0) " stroke-linecap="round" />
	<path d="M 10.229 83.34 c 0.454 0 0.904 0.123 1.302 0.355 c 0.357 0.209 0.816 0.089 1.026 -0.269 c 0.209 -0.357 0.089 -0.817 -0.269 -1.026 c -0.627 -0.366 -1.339 -0.561 -2.06 -0.561 c -2.25 0 -4.08 1.83 -4.08 4.08 S 7.979 90 10.229 90 c 0.721 0 1.434 -0.194 2.061 -0.563 c 0.357 -0.209 0.477 -0.669 0.267 -1.026 c -0.21 -0.356 -0.669 -0.476 -1.027 -0.267 c -0.396 0.232 -0.846 0.355 -1.301 0.355 c -1.423 0 -2.58 -1.157 -2.58 -2.58 S 8.806 83.34 10.229 83.34 z" style="stroke: none; stroke-width: 1; stroke-dasharray: none; stroke-linecap: butt; stroke-linejoin: miter; stroke-miterlimit: 10; fill: rgb(0,0,0); fill-rule: nonzero; opacity: 1;" transform=" matrix(1 0 0 1 0 0) " stroke-linecap="round" />
	<path d="M 17.025 81.84 c -1.638 0 -2.97 1.332 -2.97 2.97 v 2.221 c 0 1.638 1.333 2.97 2.97 2.97 s 2.97 -1.332 2.97 -2.97 V 84.81 C 19.995 83.172 18.663 81.84 17.025 81.84 z M 18.495 87.03 c 0 0.811 -0.66 1.47 -1.47 1.47 s -1.47 -0.659 -1.47 -1.47 V 84.81 c 0 -0.811 0.66 -1.47 1.47 -1.47 s 1.47 0.659 1.47 1.47 V 87.03 z" style="stroke: none; stroke-width: 1; stroke-dasharray: none; stroke-linecap: butt; stroke-linejoin: miter; stroke-miterlimit: 10; fill: rgb(0,0,0); fill-rule: nonzero; opacity: 1;" transform=" matrix(1 0 0 1 0 0) " stroke-linecap="round" />
	<path d="M 57.753 81.877 c -0.393 -0.13 -0.817 0.086 -0.946 0.479 l -1.481 4.521 l -1.536 -4.529 c -0.133 -0.393 -0.558 -0.604 -0.951 -0.469 c -0.392 0.133 -0.603 0.559 -0.469 0.951 l 2.259 6.66 C 54.73 89.795 55.017 90 55.338 90 c 0.001 0 0.003 0 0.004 0 c 0.323 -0.002 0.608 -0.21 0.709 -0.517 l 2.182 -6.66 C 58.361 82.43 58.146 82.006 57.753 81.877 z" style="stroke: none; stroke-width: 1; stroke-dasharray: none; stroke-linecap: butt; stroke-linejoin: miter; stroke-miterlimit: 10; fill: rgb(0,0,0); fill-rule: nonzero; opacity: 1;" transform=" matrix(1 0 0 1 0 0) " stroke-linecap="round" />
	<path d="M 60.67 81.84 c -0.414 0 -0.75 0.336 -0.75 0.75 v 6.66 c 0 0.414 0.336 0.75 0.75 0.75 s 0.75 -0.336 0.75 -0.75 v -6.66 C 61.42 82.176 61.084 81.84 60.67 81.84 z" style="stroke: none; stroke-width: 1; stroke-dasharray: none; stroke-linecap: butt; stroke-linejoin: miter; stroke-miterlimit: 10; fill: rgb(0,0,0); fill-rule: nonzero; opacity: 1;" transform=" matrix(1 0 0 1 0 0) " stroke-linecap="round" />
	<path d="M 32.021 81.84 c -1.638 0 -2.97 1.332 -2.97 2.97 v 2.221 c 0 1.638 1.333 2.97 2.97 2.97 s 2.97 -1.332 2.97 -2.97 V 84.81 C 34.992 83.172 33.659 81.84 32.021 81.84 z M 33.492 87.03 c 0 0.811 -0.659 1.47 -1.47 1.47 h 0 c -0.811 0 -1.47 -0.659 -1.47 -1.47 V 84.81 c 0 -0.811 0.66 -1.47 1.47 -1.47 s 1.47 0.659 1.47 1.47 V 87.03 z" style="stroke: none; stroke-width: 1; stroke-dasharray: none; stroke-linecap: butt; stroke-linejoin: miter; stroke-miterlimit: 10; fill: rgb(0,0,0); fill-rule: nonzero; opacity: 1;" transform=" matrix(1 0 0 1 0 0) " stroke-linecap="round" />
	<path d="M 42.245 81.84 c -0.414 0 -0.75 0.336 -0.75 0.75 v 4.197 l -3.098 -4.615 c -0.184 -0.274 -0.528 -0.395 -0.841 -0.3 c -0.316 0.097 -0.532 0.388 -0.532 0.718 v 6.66 c 0 0.414 0.336 0.75 0.75 0.75 s 0.75 -0.336 0.75 -0.75 v -4.197 l 3.098 4.615 C 41.764 89.879 42 90 42.245 90 c 0.073 0 0.146 -0.011 0.218 -0.032 c 0.316 -0.097 0.532 -0.388 0.532 -0.718 v -6.66 C 42.995 82.176 42.659 81.84 42.245 81.84 z" style="stroke: none; stroke-width: 1; stroke-dasharray: none; stroke-linecap: butt; stroke-linejoin: miter; stroke-miterlimit: 10; fill: rgb(0,0,0); fill-rule: nonzero; opacity: 1;" transform=" matrix(1 0 0 1 0 0) " stroke-linecap="round" />
	<path d="M 47.936 81.84 c -1.638 0 -2.97 1.332 -2.97 2.97 v 4.44 c 0 0.414 0.336 0.75 0.75 0.75 c 0.415 0 0.75 -0.336 0.75 -0.75 v -2.32 h 2.939 v 2.32 c 0 0.414 0.336 0.75 0.75 0.75 s 0.75 -0.336 0.75 -0.75 v -4.44 C 50.905 83.172 49.573 81.84 47.936 81.84 z M 46.466 85.43 v -0.62 c 0 -0.811 0.659 -1.47 1.47 -1.47 s 1.47 0.659 1.47 1.47 v 0.62 H 46.466 z" style="stroke: none; stroke-width: 1; stroke-dasharray: none; stroke-linecap: butt; stroke-linejoin: miter; stroke-miterlimit: 10; fill: rgb(0,0,0); fill-rule: nonzero; opacity: 1;" transform=" matrix(1 0 0 1 0 0) " stroke-linecap="round" />
	<path d="M 75.83 81.84 c -0.414 0 -0.75 0.336 -0.75 0.75 v 4.44 c 0 0.811 -0.66 1.47 -1.471 1.47 s -1.47 -0.659 -1.47 -1.47 v -4.44 c 0 -0.414 -0.336 -0.75 -0.75 -0.75 s -0.75 0.336 -0.75 0.75 v 4.44 c 0 1.638 1.332 2.97 2.97 2.97 s 2.971 -1.332 2.971 -2.97 v -4.44 C 76.58 82.176 76.244 81.84 75.83 81.84 z" style="stroke: none; stroke-width: 1; stroke-dasharray: none; stroke-linecap: butt; stroke-linejoin: miter; stroke-miterlimit: 10; fill: rgb(0,0,0); fill-rule: nonzero; opacity: 1;" transform=" matrix(1 0 0 1 0 0) " stroke-linecap="round" />
	<path d="M 81.219 85.17 H 80.27 c -0.365 0 -0.674 -0.419 -0.674 -0.915 s 0.309 -0.915 0.674 -0.915 h 1.521 c 0.414 0 0.75 -0.336 0.75 -0.75 s -0.336 -0.75 -0.75 -0.75 H 80.27 c -1.198 0 -2.174 1.083 -2.174 2.415 s 0.976 2.415 2.174 2.415 h 0.949 c 0.366 0 0.675 0.419 0.675 0.915 S 81.585 88.5 81.219 88.5 h -2.373 c -0.414 0 -0.75 0.336 -0.75 0.75 S 78.432 90 78.846 90 h 2.373 c 1.199 0 2.175 -1.083 2.175 -2.415 S 82.418 85.17 81.219 85.17 z" style="stroke: none; stroke-width: 1; stroke-dasharray: none; stroke-linecap: butt; stroke-linejoin: miter; stroke-miterlimit: 10; fill: rgb(0,0,0); fill-rule: nonzero; opacity: 1;" transform=" matrix(1 0 0 1 0 0) " stroke-linecap="round" />
	<path d="M 66.565 81.84 h -2.473 c -0.414 0 -0.75 0.336 -0.75 0.75 v 3.017 v 3.644 c 0 0.414 0.336 0.75 0.75 0.75 s 0.75 -0.336 0.75 -0.75 v -2.894 h 1.723 c 0.418 0 0.759 0.34 0.759 0.758 v 2.136 c 0 0.414 0.336 0.75 0.75 0.75 s 0.75 -0.336 0.75 -0.75 v -2.136 c 0 -0.582 -0.227 -1.107 -0.59 -1.508 c 0.363 -0.401 0.59 -0.927 0.59 -1.509 C 68.824 82.853 67.811 81.84 66.565 81.84 z M 64.843 83.34 h 1.723 c 0.418 0 0.759 0.34 0.759 0.758 s -0.341 0.759 -0.759 0.759 h -1.723 V 83.34 z" style="stroke: none; stroke-width: 1; stroke-dasharray: none; stroke-linecap: butt; stroke-linejoin: miter; stroke-miterlimit: 10; fill: rgb(0,0,0); fill-rule: nonzero; opacity: 1;" transform=" matrix(1 0 0 1 0 0) " stroke-linecap="round" />
	<path d="M 25.006 81.84 h -2.473 c -0.414 0 -0.75 0.336 -0.75 0.75 v 3.017 v 3.644 c 0 0.414 0.336 0.75 0.75 0.75 s 0.75 -0.336 0.75 -0.75 v -2.894 h 1.723 c 0.418 0 0.758 0.34 0.758 0.758 v 2.136 c 0 0.414 0.336 0.75 0.75 0.75 s 0.75 -0.336 0.75 -0.75 v -2.136 c 0 -0.582 -0.227 -1.107 -0.59 -1.508 c 0.363 -0.401 0.59 -0.927 0.59 -1.509 C 27.264 82.853 26.251 81.84 25.006 81.84 z M 23.283 83.34 h 1.723 c 0.418 0 0.758 0.34 0.758 0.758 s -0.34 0.759 -0.758 0.759 h -1.723 V 83.34 z" style="stroke: none; stroke-width: 1; stroke-dasharray: none; stroke-linecap: butt; stroke-linejoin: miter; stroke-miterlimit: 10; fill: rgb(0,0,0); fill-rule: nonzero; opacity: 1;" transform=" matrix(1 0 0 1 0 0) " stroke-linecap="round" />
</g>
</svg>